<?xml version="1.0" standalone="no"?>
<!DOCTYPE svg PUBLIC "-//W3C//DTD SVG 20010904//EN"
 "http://www.w3.org/TR/2001/REC-SVG-20010904/DTD/svg10.dtd">
<svg version="1.0" xmlns="http://www.w3.org/2000/svg"
 width="564.000000pt" height="564.000000pt" viewBox="0 0 564.000000 564.000000"
 preserveAspectRatio="xMidYMid meet">
<metadata>
Created by potrace 1.16, written by Peter Selinger 2001-2019
</metadata>
<g transform="translate(0.000000,564.000000) scale(0.100000,-0.100000)"
fill="#000000" stroke="none">
<path d="M0 2820 l0 -2820 2820 0 2820 0 0 2820 0 2820 -2820 0 -2820 0 0
-2820z m2687 1618 c21 2 51 -31 45 -50 -1 -5 5 -8 14 -8 13 0 14 -9 9 -52 -4
-37 -2 -66 9 -96 13 -36 16 -99 16 -358 0 -177 -4 -314 -9 -314 -8 0 -22 -54
-23 -87 0 -5 -5 -19 -10 -33 -6 -14 -14 -61 -19 -105 -8 -78 -9 -81 -51 -116
-23 -20 -48 -35 -54 -32 -16 6 -44 -35 -44 -64 0 -33 -15 -36 -30 -5 -39 85
-54 150 -55 240 l0 92 46 40 c76 65 92 116 66 217 l-13 51 64 108 64 109 -5
90 c-6 111 -31 199 -54 190 -9 -3 -20 0 -24 6 -14 24 -29 -4 -29 -57 0 -43 5
-59 23 -76 l22 -23 3 23 c2 12 8 22 13 22 5 0 9 -1 9 -2 -1 -2 -7 -25 -14 -53
-13 -47 -15 -50 -61 -61 -40 -11 -52 -10 -69 2 -12 8 -15 14 -7 14 10 0 11 3
2 13 -6 8 -8 17 -4 21 4 4 0 4 -10 0 -11 -4 -17 -1 -18 7 0 8 -4 5 -9 -6 -11
-23 -12 69 -3 172 l6 62 42 12 c43 13 45 15 60 84 1 6 3 25 3 44 l2 33 37 -28
c20 -15 47 -27 60 -26z m333 30 c5 -13 9 -19 9 -15 1 5 21 -8 46 -29 l45 -36
0 -159 0 -159 -39 -24 c-34 -22 -44 -24 -76 -15 -36 10 -37 11 -30 47 8 45 -4
36 -15 -10 -8 -35 -11 -31 -27 40 -11 46 -8 50 19 25 25 -23 32 -12 38 63 5
63 -3 91 -20 64 -4 -7 -16 -9 -27 -6 -18 6 -22 -1 -37 -54 -9 -33 -19 -97 -22
-142 -5 -72 -3 -87 14 -112 l20 -29 -24 -36 c-16 -25 -31 -73 -44 -145 -11
-59 -23 -112 -27 -119 -4 -7 0 -6 10 2 9 7 17 25 17 39 0 53 34 188 53 214
l21 28 33 -52 c18 -29 31 -59 28 -65 -2 -7 3 -13 11 -13 12 0 15 -6 10 -22
-29 -109 -30 -134 -6 -183 14 -30 39 -59 67 -78 40 -29 43 -34 43 -78 0 -60
-14 -99 -37 -99 -17 -1 -17 -1 1 -11 14 -9 20 -8 27 2 6 10 9 7 9 -12 0 -14
-7 -34 -15 -45 -8 -10 -15 -29 -15 -42 0 -13 -10 -46 -22 -75 l-22 -51 -8 39
c-5 22 -18 49 -29 61 -17 18 -18 25 -9 50 6 16 21 40 33 54 l22 25 -28 -24
c-15 -14 -33 -43 -39 -65 -7 -26 -37 -71 -82 -121 -38 -44 -73 -84 -78 -90
-12 -13 -8 965 4 1115 6 69 11 155 12 192 1 59 4 70 30 97 17 18 37 29 45 26
9 -2 32 9 51 25 42 36 48 36 60 8z m-686 -347 c-19 -33 -13 -61 13 -61 26 0
170 -48 213 -71 67 -35 66 -32 21 -92 -65 -89 -66 -92 -36 -180 26 -78 26 -97
-1 -97 -8 0 -14 -6 -14 -13 0 -7 -25 -37 -56 -67 -107 -105 -107 -122 -7 -371
39 -96 69 -185 67 -199 -1 -14 -3 -29 -3 -33 -1 -5 -6 -5 -13 -1 -7 5 -8 3 -3
-6 6 -10 11 -10 20 3 21 30 28 18 20 -35 -8 -60 -8 -94 -1 -158 4 -34 -1 -58
-18 -96 -21 -47 -94 -139 -102 -131 -2 2 4 32 14 68 27 98 19 136 -26 124 -16
-4 -28 -1 -33 7 -6 9 -9 6 -9 -9 0 -25 -15 -31 -23 -10 -2 6 0 41 4 76 10 69
47 148 92 192 31 31 34 51 12 69 -19 16 -25 9 -50 -50 -35 -82 -76 -124 -142
-145 -23 -6 -23 -5 -23 96 0 101 0 102 37 153 20 28 40 53 45 54 14 6 38 33
38 42 0 18 -39 31 -60 20 -16 -9 -18 -15 -10 -30 14 -25 -48 -114 -118 -169
l-50 -40 -12 52 c-22 91 -37 105 -124 116 -51 6 -51 6 -72 61 -39 99 -44 108
-79 131 -20 14 -40 38 -46 58 -15 46 -5 165 17 199 l17 26 13 -43 c7 -23 25
-61 41 -83 l28 -41 3 83 c3 74 1 85 -20 107 -20 22 -21 27 -11 76 6 29 17 66
24 82 l13 30 4 -25 c12 -73 87 -79 193 -15 89 54 159 124 159 158 0 42 -51 70
-115 63 l-50 -5 51 48 c40 36 156 107 182 111 2 0 -5 -13 -14 -29z m1044 -40
c15 -11 43 -36 62 -57 33 -35 34 -36 10 -31 -14 4 -35 7 -47 7 -17 0 -23 7
-26 33 l-4 32 -1 -37 c-2 -27 -7 -38 -23 -43 -11 -4 -25 -17 -31 -30 -8 -19
-6 -30 11 -58 38 -62 199 -167 254 -167 21 0 24 -4 21 -27 l-4 -28 13 27 c7
14 20 34 28 45 9 10 20 29 25 43 7 22 9 19 26 -35 23 -77 23 -101 -2 -132 -16
-20 -20 -41 -20 -99 0 -41 2 -74 5 -74 9 0 54 54 60 71 7 21 47 32 57 16 4 -7
8 -47 8 -91 l0 -79 -49 -44 c-37 -33 -55 -60 -72 -106 -12 -34 -27 -67 -33
-73 -6 -6 -35 -14 -65 -17 l-54 -6 7 32 c3 18 10 50 15 72 5 22 19 81 30 130
11 50 20 82 20 72 1 -27 45 -19 49 9 2 11 -7 46 -18 77 -25 66 -81 125 -173
179 -34 20 -69 43 -77 50 -13 12 -21 9 -59 -21 -24 -20 -57 -54 -73 -75 l-29
-40 33 -25 c68 -53 89 -80 78 -101 -5 -10 -10 -22 -10 -27 1 -4 7 3 14 16 l13
24 41 -52 c23 -28 51 -69 63 -91 13 -22 26 -40 31 -40 11 0 11 2 -13 65 l-21
55 23 19 c22 18 22 19 6 45 -10 15 -31 29 -47 33 l-30 6 0 80 0 81 34 -40 c18
-21 57 -68 85 -104 l53 -65 -7 -60 c-4 -33 -9 -71 -10 -85 -1 -14 -7 -45 -13
-70 -6 -25 -16 -72 -22 -105 -7 -33 -16 -64 -20 -70 -4 -5 -13 -36 -20 -67 -7
-32 -16 -58 -20 -58 -4 0 -20 10 -36 22 -16 12 -31 23 -33 25 -2 1 2 11 10 20
13 17 13 17 -5 3 -17 -13 -21 -12 -47 20 -19 23 -27 41 -23 55 4 15 3 16 -4 6
-8 -11 -12 -10 -21 7 -13 24 1 104 18 110 6 2 21 12 33 21 l21 18 -24 -1 c-20
-1 -25 5 -30 34 -7 36 -12 19 -11 -32 0 -16 -3 -28 -8 -28 -4 0 -11 -11 -14
-25 -4 -15 -11 -22 -20 -19 -7 3 -21 -3 -31 -12 -17 -17 -16 -19 6 -37 18 -15
24 -30 24 -61 1 -22 4 -53 9 -67 6 -22 2 -29 -33 -52 -22 -15 -43 -27 -46 -27
-5 0 -36 56 -35 65 1 21 -2 25 -15 25 -9 0 -20 -11 -26 -24 -10 -21 -7 -28 23
-59 58 -57 98 -164 98 -259 l0 -30 -47 26 c-36 21 -48 24 -55 14 -16 -27 -13
-73 11 -145 20 -59 16 -66 -14 -26 -11 14 -27 34 -36 42 -23 22 -49 76 -49
101 0 11 -4 20 -9 20 -5 0 -8 6 -7 13 5 22 16 86 21 122 3 19 11 35 18 35 7 0
12 14 12 34 0 33 -15 41 -15 8 0 -9 -7 -25 -15 -36 -13 -17 -14 -16 -20 16 -8
41 11 100 25 78 7 -11 10 -4 10 23 0 22 24 97 59 185 86 212 91 253 40 308
-23 24 -23 37 2 140 9 38 10 61 2 85 -11 33 -11 33 -6 -11 3 -28 -1 -62 -11
-90 -9 -25 -16 -53 -16 -63 0 -15 -12 -8 -55 28 -63 54 -69 79 -35 154 11 24
20 50 20 58 0 21 -29 73 -67 120 l-34 42 26 16 c14 8 36 21 49 29 27 17 173
66 196 66 8 0 21 4 29 9 12 8 11 15 -7 45 l-21 35 55 -24 c30 -13 67 -33 82
-44z m516 -250 c14 -20 30 -56 35 -81 10 -43 9 -46 -19 -68 -28 -22 -29 -26
-26 -95 3 -64 0 -76 -23 -109 -14 -21 -29 -38 -32 -38 -4 0 -9 30 -11 68 -4
56 -2 71 13 88 12 13 19 34 18 60 l-1 39 -9 -43 c-14 -71 -28 -80 -46 -32 -10
26 -9 32 8 41 15 8 19 20 18 52 -1 23 4 56 11 73 12 27 10 36 -13 87 l-26 57
39 -31 c22 -18 50 -48 64 -68z m-2119 -110 c-5 -32 -3 -41 14 -53 20 -14 20
-17 5 -60 -8 -25 -18 -74 -22 -109 l-7 -64 -28 37 c-26 34 -29 45 -29 117 0
69 4 87 26 126 33 56 50 59 41 6z m1005 -450 l0 -270 -43 47 c-23 26 -58 65
-76 86 l-33 40 33 27 c39 33 54 36 44 12 -16 -41 -17 -47 -2 -27 17 22 24 57
32 153 2 36 9 78 14 95 9 26 17 65 20 99 1 4 3 7 6 7 2 0 5 -121 5 -269z
m-1042 8 c33 -69 76 -129 92 -129 5 0 10 26 12 57 l3 57 24 -58 c22 -53 22
-58 7 -75 -31 -34 -55 -119 -62 -214 l-7 -95 -55 114 c-31 63 -61 113 -67 111
-5 -2 -27 -54 -48 -116 -30 -87 -40 -134 -44 -207 -3 -52 -2 -94 2 -94 4 0 41
20 82 45 40 25 77 45 82 45 20 0 41 -42 56 -114 9 -43 24 -104 34 -136 17 -55
17 -57 -1 -69 -23 -14 -39 -52 -27 -67 5 -6 2 -20 -7 -35 l-16 -24 20 23 c11
12 28 22 39 23 15 0 14 2 -4 9 -26 11 -30 42 -8 60 15 12 35 6 35 -12 0 -17
67 -146 112 -215 l40 -63 -33 -45 c-19 -24 -36 -45 -39 -45 -4 0 -97 137 -121
180 -7 12 -11 11 -30 -5 -30 -27 -56 -89 -65 -153 l-7 -53 -43 65 c-27 40 -41
71 -38 81 4 10 2 15 -6 13 -27 -6 -137 251 -121 280 5 9 5 23 1 31 -25 49 -33
102 -22 153 10 50 4 120 -12 146 -9 14 19 110 38 131 36 40 54 107 54 203 l0
95 53 87 c30 47 56 86 59 85 3 0 20 -31 38 -70z m2193 20 l32 -51 -37 -35
c-20 -19 -35 -38 -32 -40 3 -3 17 9 31 26 33 38 48 39 65 4 12 -28 18 -181 7
-219 -3 -10 -8 -31 -11 -46 -9 -42 -20 -34 -41 30 -18 55 -40 91 -49 81 -3 -2
-29 -56 -59 -119 l-55 -115 -1 75 c-1 86 -23 183 -49 220 -10 14 -21 30 -24
35 -4 6 4 35 18 65 25 60 27 59 24 -12 -1 -38 2 -48 14 -48 18 0 72 79 104
153 11 26 23 47 25 47 3 0 20 -23 38 -51z m-1190 -302 c32 -50 39 -69 39 -111
0 -28 -4 -58 -10 -66 -5 -9 -5 -19 1 -26 6 -8 3 -13 -11 -17 -24 -6 -25 -27
-5 -67 9 -17 13 -30 9 -30 -4 0 -2 -6 4 -13 13 -15 4 -159 -9 -152 -4 3 -6 31
-4 63 l4 57 -9 -60 c-5 -33 -17 -77 -26 -98 -14 -30 -15 -42 -5 -63 8 -19 8
-30 1 -39 -8 -9 -6 -14 5 -19 9 -3 13 -2 10 4 -3 6 -4 10 -1 10 3 0 10 -9 16
-19 8 -15 5 -28 -12 -58 -12 -21 -25 -40 -29 -43 -4 -3 -10 -17 -12 -30 -3
-14 -10 -38 -16 -53 -13 -34 -14 -44 -3 -32 5 6 15 30 22 55 13 43 55 120 65
120 3 0 5 -25 5 -55 0 -48 -2 -55 -20 -55 -13 0 -18 -5 -14 -15 5 -13 9 -13
22 -3 14 12 14 -9 9 -197 -4 -115 -7 -258 -7 -317 0 -89 -3 -108 -15 -108 -8
0 -15 -8 -14 -17 0 -11 3 -13 6 -5 11 29 23 8 23 -43 0 -32 -4 -55 -11 -55 -5
0 -9 -8 -7 -17 1 -10 -1 -23 -5 -29 -4 -7 -8 -35 -9 -64 -1 -28 -6 -54 -10
-56 -15 -9 -118 220 -118 261 0 13 8 29 17 36 14 12 16 12 8 0 -5 -10 -4 -12
3 -7 7 4 12 18 12 30 0 21 -6 24 -59 29 -33 3 -73 12 -90 20 -28 14 -30 13
-50 -14 -25 -33 -26 -39 -7 -39 10 0 13 -10 10 -37 -6 -48 15 -89 42 -85 10 2
21 8 22 13 2 5 9 6 14 3 7 -4 8 -2 4 4 -4 7 -4 17 -1 22 4 6 31 -24 60 -67 29
-43 51 -79 50 -81 -7 -8 -224 62 -296 95 l-79 36 0 68 c0 38 2 69 4 69 2 0 11
3 19 6 10 3 24 -8 41 -32 17 -25 27 -33 30 -23 7 21 2 78 -6 72 -5 -2 -8 1 -8
6 0 6 5 11 10 11 22 0 8 20 -30 41 -32 18 -40 28 -40 51 0 22 8 31 38 46 37
19 37 19 100 -8 34 -15 59 -30 55 -35 -5 -4 -2 -5 5 -1 7 4 43 0 82 -10 94
-23 100 -19 100 61 0 39 4 65 11 65 6 0 3 7 -6 16 -14 15 -43 25 -115 40 -29
6 -40 14 -19 14 8 0 20 13 26 30 14 37 38 47 62 26 30 -28 44 -20 38 20 -4 23
-1 47 9 65 8 17 10 29 4 29 -5 0 -10 -6 -10 -12 -1 -30 -18 21 -25 72 -10 73
-11 78 -28 136 -8 27 -12 56 -9 64 3 8 1 12 -3 8 -9 -9 -76 152 -68 165 3 4
11 6 19 3 8 -3 14 0 14 7 0 7 16 29 35 47 30 29 37 32 45 20 5 -8 10 -19 10
-24 0 -5 6 -3 14 3 14 12 28 74 15 65 -12 -7 -51 54 -43 67 4 7 8 31 9 55 2
51 26 91 57 96 35 5 37 56 3 88 -14 13 -25 30 -25 37 0 8 -4 11 -10 8 -5 -3
-10 -1 -10 4 0 6 8 11 18 12 10 0 12 3 4 6 -6 2 -10 9 -6 14 9 15 23 1 65 -64z
m-677 -16 c27 -44 36 -70 36 -102 0 -24 5 -60 11 -79 6 -19 10 -62 9 -95 -1
-48 -7 -67 -28 -95 -33 -45 -43 -51 -59 -39 -6 6 -22 8 -35 4 -18 -5 -20 -4
-8 4 11 8 11 11 2 11 -18 0 -39 54 -47 122 -7 52 -5 60 15 76 16 13 23 32 26
67 9 111 25 196 35 190 4 -3 24 -32 43 -64z m1538 -75 c9 -80 15 -104 31 -117
17 -14 19 -24 14 -75 -3 -33 -13 -77 -20 -99 -12 -33 -19 -39 -38 -37 -17 2
-33 -7 -56 -34 -27 -33 -33 -36 -48 -24 -18 15 -17 40 5 230 6 52 9 115 6 140
-3 29 -2 38 3 25 8 -19 9 -18 15 6 4 14 8 32 9 40 2 8 13 32 26 53 24 38 25
38 33 16 5 -13 14 -69 20 -124z m455 -22 c29 -42 47 -123 34 -158 -15 -39 -13
-112 3 -145 12 -22 13 -37 4 -72 -6 -24 -17 -49 -25 -56 -9 -7 -12 -19 -8 -32
8 -25 -32 -139 -83 -235 -25 -48 -38 -64 -40 -52 -2 10 2 22 10 27 10 7 10 9
0 9 -7 0 -15 -8 -18 -17 -3 -10 -8 -25 -11 -33 -4 -8 -8 -26 -10 -38 -3 -21
-50 -102 -59 -102 -1 0 -2 19 -2 41 0 23 4 36 8 29 5 -9 9 -9 14 -1 4 6 3 11
-3 11 -6 0 -10 33 -10 84 0 70 4 87 20 102 10 9 19 29 19 43 0 19 -3 22 -9 12
-7 -11 -10 -9 -16 8 -8 26 2 44 22 37 11 -5 13 -2 9 9 -3 9 -1 36 4 61 6 24
11 62 12 85 2 48 12 57 41 32 l22 -18 -20 24 c-23 27 -29 115 -7 106 6 -3 18
-8 26 -11 20 -8 27 151 9 187 -15 29 -17 75 -3 84 6 3 10 19 10 34 0 42 12 45
25 7 6 -18 21 -46 32 -62z m-1119 -37 c7 -15 16 -49 19 -77 5 -44 3 -54 -17
-75 -15 -16 -23 -36 -22 -57 1 -40 -48 -142 -61 -129 -5 5 -16 7 -23 4 -22 -8
-19 148 3 190 21 41 19 105 -4 123 -17 13 -17 15 5 33 12 11 22 26 22 35 0 14
4 13 33 -2 17 -10 38 -30 45 -45z m-707 -124 c11 -58 16 -63 61 -65 l35 -1 8
-101 c5 -56 9 -113 9 -128 1 -16 4 -28 9 -28 4 0 7 -6 7 -14 0 -66 76 -202
169 -299 l55 -58 -27 -27 -27 -27 0 43 c0 47 -6 51 -41 23 -13 -10 -33 -21
-44 -23 -11 -2 -19 -10 -17 -16 4 -19 -14 -14 -68 19 -62 38 -67 48 -69 124 0
33 -3 72 -7 87 -5 25 -3 27 33 31 l38 4 -43 1 -44 2 7 43 c4 23 14 50 23 60
14 15 13 17 -5 17 -18 0 -21 -9 -27 -61 -5 -38 -12 -62 -22 -66 -21 -8 -17
-21 9 -25 20 -3 22 -9 25 -81 l3 -79 -28 20 c-64 47 -105 93 -95 105 10 12 12
18 12 37 0 6 5 10 11 10 6 0 8 -7 5 -16 -6 -15 -4 -15 10 -3 15 12 15 14 -2
22 -14 6 -19 20 -21 52 -1 29 -14 67 -36 109 -19 36 -32 68 -29 71 17 16 35
-3 68 -72 32 -71 37 -76 45 -55 7 18 4 31 -9 50 -50 75 -76 190 -65 284 5 42
11 53 37 69 16 10 32 16 34 14 3 -2 8 -25 13 -52z m1193 32 c42 -32 27 -214
-27 -317 -16 -32 -34 -58 -38 -58 -5 0 -9 -5 -9 -11 0 -5 5 -7 12 -3 8 5 9 2
5 -10 -5 -12 -3 -16 5 -14 7 2 25 28 40 58 l28 55 -5 -40 c-2 -22 -7 -69 -11
-105 -4 -36 -13 -72 -21 -81 -12 -14 -12 -17 2 -22 8 -4 22 -4 30 -1 26 10 16
-11 -19 -44 -54 -49 -177 -142 -188 -142 -6 0 -8 11 -6 25 3 14 1 25 -3 25 -5
0 -9 -13 -9 -30 0 -20 -8 -34 -22 -44 -23 -15 -152 -66 -167 -66 -4 0 -6 24
-3 53 4 47 11 60 69 127 35 41 80 107 99 145 20 39 39 77 44 85 5 8 11 28 15
43 3 16 10 25 16 21 6 -3 5 4 -3 16 -10 18 -10 24 -1 27 9 3 10 10 3 22 -5 10
-6 21 -3 25 4 3 8 36 10 74 4 87 7 92 42 92 38 0 55 30 60 107 1 13 28 7 55
-12z m439 -50 l49 -28 -49 -51 -48 -51 50 48 c28 26 53 47 57 47 14 0 15 -45
3 -103 -8 -34 -19 -95 -25 -135 -8 -47 -17 -75 -28 -81 -14 -8 -14 -14 -2 -51
13 -39 12 -43 -4 -56 -16 -11 -19 -27 -18 -96 l1 -83 -21 54 c-16 42 -18 58
-9 72 9 15 8 17 -4 13 -8 -4 -15 -13 -15 -21 0 -12 -2 -12 -16 1 -21 21 -27
16 -66 -52 -22 -39 -34 -51 -36 -39 -2 9 -8 15 -13 12 -5 -4 -7 -16 -3 -29 6
-25 -12 -47 -141 -177 l-75 -76 0 -71 c0 -66 2 -72 23 -76 35 -7 71 -3 79 8 4
6 10 7 14 3 11 -10 -43 -60 -56 -52 -6 3 -10 -1 -10 -9 0 -17 -90 -87 -157
-123 -42 -22 -43 -22 -43 -3 0 11 -4 20 -9 20 -5 0 -7 -9 -4 -20 6 -21 -34
-51 -96 -71 -27 -9 -35 -9 -42 2 -7 11 -9 10 -9 -3 0 -12 -16 -22 -52 -33 -28
-8 -54 -13 -56 -10 -3 3 -10 1 -16 -4 -13 -10 -56 -21 -56 -15 0 9 101 154
107 154 3 0 3 -3 0 -7 -10 -9 23 -43 43 -43 9 0 21 5 27 11 9 9 10 6 6 -12 -3
-13 -3 -21 0 -18 15 13 17 91 2 125 -11 27 -12 41 -4 56 12 21 13 21 -71 2
-88 -21 -91 -18 -83 59 5 45 7 47 47 58 22 6 52 15 65 21 15 6 26 6 30 -1 10
-16 61 -1 61 18 0 11 19 26 53 41 28 13 60 31 70 39 9 8 17 11 17 8 0 -3 13 7
29 21 76 70 91 83 98 83 4 0 14 11 21 25 8 14 14 24 15 22 1 -1 10 -12 19 -23
16 -19 16 -24 3 -50 l-15 -30 20 24 c24 28 25 35 5 51 -8 7 -15 19 -15 27 0
21 50 79 66 75 7 -1 10 5 8 16 -3 10 5 29 18 43 13 14 35 50 50 80 l27 54 1
-60 c0 -33 1 -69 2 -81 l0 -21 24 22 c29 27 30 35 3 35 -18 0 -20 5 -18 63 1
37 15 102 35 162 29 92 54 193 69 288 3 21 9 36 13 34 4 -2 29 -17 55 -32z
m-826 -249 c-42 -96 -61 -164 -77 -266 -7 -41 -14 -82 -17 -90 -4 -12 -7 -92
-4 -116 1 -3 17 8 38 23 l36 28 -7 -40 c-10 -50 -24 -68 -49 -61 -13 3 -17 0
-13 -10 3 -8 1 -14 -5 -14 -6 0 -8 -28 -5 -72 3 -40 6 -79 6 -85 0 -7 6 -13
14 -13 22 0 24 -19 9 -80 -7 -30 -12 -68 -11 -85 2 -34 -17 -75 -34 -75 -7 0
-3 -6 7 -14 13 -9 18 -24 17 -54 -2 -48 -47 -156 -62 -147 -5 3 -7 0 -5 -8 3
-7 -9 -33 -27 -58 l-33 -44 -3 68 c-2 38 1 74 6 80 5 7 6 21 2 31 -3 11 -3 38
1 60 10 53 12 465 3 490 -6 15 -4 17 6 11 10 -6 11 -4 4 6 -5 8 -9 75 -10 149
-1 131 0 136 24 163 15 16 36 27 51 27 14 0 33 5 41 10 10 6 2 8 -25 3 -23 -3
-53 -17 -69 -32 l-29 -26 5 47 c3 25 19 76 37 113 24 53 29 71 20 87 -13 24
-10 30 41 118 l40 69 56 -56 55 -56 -34 -81z m-824 -536 c25 -22 50 -40 56
-40 10 0 17 -33 11 -55 -2 -5 -6 -26 -10 -45 -3 -19 -12 -34 -18 -32 -7 1 -17
3 -24 5 -6 1 -23 -20 -36 -48 -13 -27 -28 -53 -33 -56 -6 -3 13 -4 41 -3 l50
3 0 -57 c0 -86 -7 -89 -76 -41 -87 62 -117 91 -102 101 9 5 4 8 -13 8 -14 0
-34 9 -44 20 -22 24 -18 25 30 4 20 -8 49 -14 63 -12 32 4 42 40 32 115 -6 46
-12 56 -65 104 l-58 54 44 6 c95 13 104 11 152 -31z"/>
<path d="M2170 3713 c-136 -75 -214 -167 -222 -263 -3 -30 0 -35 20 -38 16 -3
22 2 22 16 0 10 44 73 98 139 l97 120 3 -50 c2 -27 -1 -54 -7 -60 -7 -7 -5
-14 7 -23 15 -11 12 -14 -26 -29 -50 -20 -67 -59 -36 -82 18 -13 18 -15 -3
-73 -12 -33 -18 -60 -14 -60 4 0 29 33 55 74 26 42 81 107 127 150 l81 76 -38
46 c-22 25 -44 54 -50 65 -6 10 -14 16 -17 13 -4 -4 -12 -2 -20 4 -10 8 -29 2
-77 -25z"/>
</g>
</svg>
